<svg width="19" height="16" viewBox="0 0 19 16" fill="none" xmlns="http://www.w3.org/2000/svg">
<path fill-rule="evenodd" clip-rule="evenodd" d="M18.4004 8C18.4004 8.41421 18.0646 8.75 17.6504 8.75H2.9607L8.43102 14.2194C8.72407 14.5124 8.72407 14.9876 8.43102 15.2806C8.13796 15.5737 7.66282 15.5737 7.36977 15.2806L0.619766 8.53063C0.478933 8.38995 0.399801 8.19906 0.399801 8C0.399801 7.80094 0.478933 7.61005 0.619766 7.46937L7.36977 0.719375C7.66282 0.426319 8.13796 0.426319 8.43102 0.719375C8.72407 1.01243 8.72407 1.48757 8.43102 1.78062L2.9607 7.25H17.6504C18.0646 7.25 18.4004 7.58579 18.4004 8Z" fill="#171412"/>
</svg>
