<svg width="19" height="20" viewBox="0 0 19 20" fill="none" xmlns="http://www.w3.org/2000/svg">
<path fill-rule="evenodd" clip-rule="evenodd" d="M16.9004 2H14.6504V1.25C14.6504 0.835786 14.3146 0.5 13.9004 0.5C13.4862 0.5 13.1504 0.835786 13.1504 1.25V2H5.65039V1.25C5.65039 0.835786 5.3146 0.5 4.90039 0.5C4.48618 0.5 4.15039 0.835786 4.15039 1.25V2H1.90039C1.07196 2 0.400391 2.67157 0.400391 3.5V18.5C0.400391 19.3284 1.07196 20 1.90039 20H16.9004C17.7288 20 18.4004 19.3284 18.4004 18.5V3.5C18.4004 2.67157 17.7288 2 16.9004 2ZM4.15039 3.5V4.25C4.15039 4.66421 4.48618 5 4.90039 5C5.3146 5 5.65039 4.66421 5.65039 4.25V3.5H13.1504V4.25C13.1504 4.66421 13.4862 5 13.9004 5C14.3146 5 14.6504 4.66421 14.6504 4.25V3.5H16.9004V6.5H1.90039V3.5H4.15039ZM16.9004 18.5H1.90039V8H16.9004V18.5ZM7.90039 10.25V16.25C7.90039 16.6642 7.5646 17 7.15039 17C6.73618 17 6.40039 16.6642 6.40039 16.25V11.4631L5.98602 11.6713C5.61529 11.8566 5.1645 11.7063 4.97914 11.3356C4.79378 10.9649 4.94404 10.5141 5.31477 10.3287L6.81477 9.57875C7.04734 9.46237 7.32361 9.47478 7.54482 9.61155C7.76602 9.74832 7.90058 9.98993 7.90039 10.25ZM13.4466 13.1047L11.6504 15.5H13.1504C13.5646 15.5 13.9004 15.8358 13.9004 16.25C13.9004 16.6642 13.5646 17 13.1504 17H10.1504C9.86631 17 9.60661 16.8395 9.47957 16.5854C9.35253 16.3313 9.37994 16.0273 9.55039 15.8L12.2485 12.2028C12.4157 11.9802 12.4459 11.6833 12.3268 11.4316C12.2077 11.1799 11.959 11.0149 11.6808 11.003C11.4027 10.9912 11.1408 11.1344 11.0007 11.375C10.8706 11.6146 10.6207 11.7647 10.348 11.7671C10.0754 11.7694 9.82295 11.6236 9.68875 11.3863C9.55454 11.1489 9.55972 10.8574 9.70227 10.625C10.2116 9.74353 11.2494 9.31391 12.2328 9.57743C13.2162 9.84095 13.9001 10.7319 13.9004 11.75C13.902 12.2391 13.7425 12.7152 13.4466 13.1047Z" fill="#171412"/>
</svg>
