<svg width="16" height="16" viewBox="0 0 16 16" fill="none" xmlns="http://www.w3.org/2000/svg">
<path fill-rule="evenodd" clip-rule="evenodd" d="M15.681 14.2194C15.9741 14.5124 15.9741 14.9876 15.681 15.2806C15.388 15.5737 14.9128 15.5737 14.6198 15.2806L8.40039 9.06031L2.18102 15.2806C1.88796 15.5737 1.41282 15.5737 1.11977 15.2806C0.82671 14.9876 0.82671 14.5124 1.11977 14.2194L7.34008 8L1.11977 1.78062C0.82671 1.48757 0.82671 1.01243 1.11977 0.719375C1.41282 0.426319 1.88796 0.426319 2.18102 0.719375L8.40039 6.93969L14.6198 0.719375C14.9128 0.426319 15.388 0.426319 15.681 0.719375C15.9741 1.01243 15.9741 1.48757 15.681 1.78062L9.4607 8L15.681 14.2194Z" fill="#171412"/>
</svg>
