<svg width="19" height="18" viewBox="0 0 19 18" fill="none" xmlns="http://www.w3.org/2000/svg">
<path fill-rule="evenodd" clip-rule="evenodd" d="M18.4004 9C18.4004 9.41421 18.0646 9.75 17.6504 9.75H9.40039C8.98618 9.75 8.65039 9.41421 8.65039 9C8.65039 8.58579 8.98618 8.25 9.40039 8.25H17.6504C18.0646 8.25 18.4004 8.58579 18.4004 9ZM9.40039 3.75H17.6504C18.0646 3.75 18.4004 3.41421 18.4004 3C18.4004 2.58579 18.0646 2.25 17.6504 2.25H9.40039C8.98618 2.25 8.65039 2.58579 8.65039 3C8.65039 3.41421 8.98618 3.75 9.40039 3.75ZM17.6504 14.25H9.40039C8.98618 14.25 8.65039 14.5858 8.65039 15C8.65039 15.4142 8.98618 15.75 9.40039 15.75H17.6504C18.0646 15.75 18.4004 15.4142 18.4004 15C18.4004 14.5858 18.0646 14.25 17.6504 14.25ZM5.11977 0.969375L2.65039 3.43969L1.68102 2.46938C1.38796 2.17632 0.912822 2.17632 0.619766 2.46938C0.32671 2.76243 0.32671 3.23757 0.619766 3.53062L2.11977 5.03063C2.26044 5.17146 2.45133 5.25059 2.65039 5.25059C2.84945 5.25059 3.04034 5.17146 3.18102 5.03063L6.18102 2.03062C6.47407 1.73757 6.47407 1.26243 6.18102 0.969375C5.88796 0.676319 5.41282 0.676319 5.11977 0.969375ZM5.11977 6.96937L2.65039 9.43969L1.68102 8.46937C1.49144 8.2798 1.21513 8.20576 0.956168 8.27515C0.697206 8.34454 0.494932 8.54681 0.425543 8.80578C0.356154 9.06474 0.430192 9.34105 0.619766 9.53063L2.11977 11.0306C2.26044 11.1715 2.45133 11.2506 2.65039 11.2506C2.84945 11.2506 3.04034 11.1715 3.18102 11.0306L6.18102 8.03063C6.47407 7.73757 6.47407 7.26243 6.18102 6.96937C5.88796 6.67632 5.41282 6.67632 5.11977 6.96937ZM5.11977 12.9694L2.65039 15.4397L1.68102 14.4694C1.49144 14.2798 1.21513 14.2058 0.956168 14.2752C0.697206 14.3445 0.494932 14.5468 0.425543 14.8058C0.356154 15.0647 0.430192 15.3411 0.619766 15.5306L2.11977 17.0306C2.26044 17.1715 2.45133 17.2506 2.65039 17.2506C2.84945 17.2506 3.04034 17.1715 3.18102 17.0306L6.18102 14.0306C6.47407 13.7376 6.47407 13.2624 6.18102 12.9694C5.88796 12.6763 5.41282 12.6763 5.11977 12.9694Z" fill="#171412"/>
</svg>
