<svg width="18" height="32" viewBox="0 0 18 32" fill="none" xmlns="http://www.w3.org/2000/svg">
<path fill-rule="evenodd" clip-rule="evenodd" d="M17.0443 22.5135C17.2723 22.7443 17.4004 23.0575 17.4004 23.3842C17.4004 23.7108 17.2723 24.024 17.0443 24.2549L9.75928 31.6391C9.53154 31.8702 9.2225 32 8.90025 32C8.578 32 8.26896 31.8702 8.04122 31.6391L0.75621 24.2549C0.281784 23.774 0.281784 22.9943 0.75621 22.5135C1.23064 22.0326 1.99983 22.0326 2.47426 22.5135L8.90025 29.0284L15.3262 22.5135C15.554 22.2824 15.863 22.1525 16.1853 22.1525C16.5075 22.1525 16.8166 22.2824 17.0443 22.5135ZM2.47426 9.48655L8.90025 2.97156L15.3262 9.48655C15.8007 9.96743 16.5699 9.96743 17.0443 9.48655C17.5187 9.00566 17.5187 8.226 17.0443 7.74512L9.75928 0.360946C9.53154 0.12985 9.2225 0 8.90025 0C8.578 0 8.26896 0.12985 8.04122 0.360946L0.75621 7.74512C0.281784 8.226 0.281784 9.00566 0.75621 9.48655C1.23064 9.96743 1.99983 9.96743 2.47426 9.48655Z" fill="#8A7D61"/>
</svg>
