<svg width="17" height="17" viewBox="0 0 17 17" fill="none" xmlns="http://www.w3.org/2000/svg">
<path fill-rule="evenodd" clip-rule="evenodd" d="M16.159 4.73203L12.6684 1.24062C12.4339 1.00614 12.1159 0.874408 11.7844 0.874408C11.4528 0.874408 11.1348 1.00614 10.9004 1.24062L1.2668 10.875C1.03131 11.1086 0.899331 11.4269 0.900391 11.7586V15.25C0.900391 15.9404 1.46003 16.5 2.15039 16.5H5.6418C5.9735 16.5011 6.29178 16.3691 6.52539 16.1336L16.159 6.5C16.3935 6.26557 16.5252 5.94759 16.5252 5.61602C16.5252 5.28445 16.3935 4.96646 16.159 4.73203ZM5.6418 15.25H2.15039V11.7586L9.02539 4.88359L12.5168 8.375L5.6418 15.25ZM13.4004 7.49063L9.90898 4L11.784 2.125L15.2754 5.61562L13.4004 7.49063Z" fill="#171412"/>
</svg>
