<svg width="22" height="21" viewBox="0 0 22 21" fill="none" xmlns="http://www.w3.org/2000/svg">
<path fill-rule="evenodd" clip-rule="evenodd" d="M21.8254 8.12094C21.6397 7.54864 21.13 7.14267 20.5307 7.08969L14.9629 6.60969L12.7804 1.41969C12.548 0.862832 12.0038 0.500187 11.4004 0.500187C10.797 0.500187 10.2527 0.862832 10.0204 1.41969L7.84445 6.60969L2.27008 7.0925C1.66827 7.14307 1.15548 7.54962 0.968989 8.12404C0.782499 8.69846 0.958682 9.32869 1.41602 9.72313L5.64508 13.4187L4.37758 18.9069C4.24055 19.494 4.46841 20.1062 4.95601 20.4608C5.44361 20.8155 6.09617 20.8437 6.61258 20.5325L11.3938 17.6262L16.1854 20.5325C16.7018 20.8437 17.3544 20.8155 17.842 20.4608C18.3296 20.1062 18.5574 19.494 18.4204 18.9069L17.1538 13.4131L21.382 9.72313C21.8393 9.3273 22.0141 8.69556 21.8254 8.12094ZM20.3985 8.58969L16.1704 12.2797C15.751 12.6445 15.5678 13.2112 15.6941 13.7525L16.9645 19.25L12.1766 16.3438C11.7004 16.0538 11.1022 16.0538 10.626 16.3438L5.84477 19.25L7.10664 13.7563C7.23302 13.215 7.04975 12.6482 6.63039 12.2834L2.40039 8.59531C2.40005 8.59251 2.40005 8.58968 2.40039 8.58687L7.97289 8.105C8.52736 8.05613 9.00917 7.70424 9.22445 7.19094L11.4004 2.0075L13.5754 7.19094C13.7907 7.70424 14.2725 8.05613 14.827 8.105L20.4004 8.58687C20.4004 8.58687 20.4004 8.5925 20.4004 8.59344L20.3985 8.58969Z" fill="#171412"/>
</svg>
