<svg width="22" height="18" viewBox="0 0 22 18" fill="none" xmlns="http://www.w3.org/2000/svg">
<path fill-rule="evenodd" clip-rule="evenodd" d="M16.0879 0C14.152 0 12.457 0.8325 11.4004 2.23969C10.3438 0.8325 8.64883 0 6.71289 0C3.50423 0.00361657 0.904007 2.60384 0.900391 5.8125C0.900391 12.375 10.6307 17.6869 11.0451 17.9062C11.2669 18.0256 11.5339 18.0256 11.7557 17.9062C12.1701 17.6869 21.9004 12.375 21.9004 5.8125C21.8968 2.60384 19.2965 0.00361657 16.0879 0ZM11.4004 16.3875C9.68852 15.39 2.40039 10.8459 2.40039 5.8125C2.40349 3.43206 4.33245 1.5031 6.71289 1.5C8.53633 1.5 10.0673 2.47125 10.7066 4.03125C10.8222 4.31259 11.0962 4.49627 11.4004 4.49627C11.7045 4.49627 11.9786 4.31259 12.0941 4.03125C12.7335 2.46844 14.2645 1.5 16.0879 1.5C18.4683 1.5031 20.3973 3.43206 20.4004 5.8125C20.4004 10.8384 13.1104 15.3891 11.4004 16.3875Z" fill="#8C805E"/>
</svg>
