<svg width="17" height="14" viewBox="0 0 17 14" fill="none" xmlns="http://www.w3.org/2000/svg">
<path fill-rule="evenodd" clip-rule="evenodd" d="M15.2754 0.125H1.52539C0.835035 0.125 0.275391 0.684644 0.275391 1.375V12.625C0.275391 13.3154 0.835035 13.875 1.52539 13.875H15.2754C15.9657 13.875 16.5254 13.3154 16.5254 12.625V1.375C16.5254 0.684644 15.9657 0.125 15.2754 0.125ZM15.2754 1.375V9.40234L13.2387 7.36641C13.0042 7.13192 12.6863 7.00019 12.3547 7.00019C12.0231 7.00019 11.7051 7.13192 11.4707 7.36641L9.9082 8.92891L6.4707 5.49141C5.98261 5.00364 5.1916 5.00364 4.70352 5.49141L1.52539 8.66953V1.375H15.2754ZM1.52539 10.4375L5.58789 6.375L11.8379 12.625H1.52539V10.4375ZM15.2754 12.625H13.6059L10.7934 9.8125L12.3559 8.25L15.2754 11.1703V12.625ZM9.65039 4.8125C9.65039 4.29473 10.0701 3.875 10.5879 3.875C11.1057 3.875 11.5254 4.29473 11.5254 4.8125C11.5254 5.33027 11.1057 5.75 10.5879 5.75C10.0701 5.75 9.65039 5.33027 9.65039 4.8125Z" fill="#171712"/>
</svg>
