<svg width="21" height="20" viewBox="0 0 21 20" fill="none" xmlns="http://www.w3.org/2000/svg">
<path fill-rule="evenodd" clip-rule="evenodd" d="M10.4004 0.25C5.01561 0.25 0.650391 4.61522 0.650391 10C0.650391 15.3848 5.01561 19.75 10.4004 19.75C15.7852 19.75 20.1504 15.3848 20.1504 10C20.1447 4.61758 15.7828 0.255684 10.4004 0.25ZM10.4004 18.25C5.84404 18.25 2.15039 14.5563 2.15039 10C2.15039 5.44365 5.84404 1.75 10.4004 1.75C14.9567 1.75 18.6504 5.44365 18.6504 10C18.6452 14.5542 14.9546 18.2448 10.4004 18.25ZM11.9004 14.5C11.9004 14.9142 11.5646 15.25 11.1504 15.25C10.322 15.25 9.65039 14.5784 9.65039 13.75V10C9.23618 10 8.90039 9.66421 8.90039 9.25C8.90039 8.83579 9.23618 8.5 9.65039 8.5C10.4788 8.5 11.1504 9.17157 11.1504 10V13.75C11.5646 13.75 11.9004 14.0858 11.9004 14.5ZM8.90039 5.875C8.90039 5.25368 9.40407 4.75 10.0254 4.75C10.6467 4.75 11.1504 5.25368 11.1504 5.875C11.1504 6.49632 10.6467 7 10.0254 7C9.40407 7 8.90039 6.49632 8.90039 5.875Z" fill="#171412"/>
</svg>
