<svg width="21" height="16" viewBox="0 0 21 16" fill="none" xmlns="http://www.w3.org/2000/svg">
<path fill-rule="evenodd" clip-rule="evenodd" d="M19.4004 0.5H1.40039C0.986177 0.5 0.650391 0.835786 0.650391 1.25V14C0.650391 14.8284 1.32196 15.5 2.15039 15.5H18.6504C19.4788 15.5 20.1504 14.8284 20.1504 14V1.25C20.1504 0.835786 19.8146 0.5 19.4004 0.5ZM10.4004 8.48281L3.32883 2H17.472L10.4004 8.48281ZM7.65445 8L2.15039 13.0447V2.95531L7.65445 8ZM8.76445 9.01719L9.88945 10.0531C10.1763 10.3165 10.617 10.3165 10.9038 10.0531L12.0288 9.01719L17.4663 14H3.32883L8.76445 9.01719ZM13.1463 8L18.6504 2.95437V13.0456L13.1463 8Z" fill="#171712"/>
</svg>
