<svg width="21" height="19" viewBox="0 0 21 19" fill="none" xmlns="http://www.w3.org/2000/svg">
<path fill-rule="evenodd" clip-rule="evenodd" d="M20.9004 9.25C20.8978 6.76579 18.8846 4.75258 16.4004 4.75H12.6691C12.3963 4.73406 7.64227 4.39937 3.11508 0.6025C2.66875 0.227648 2.04568 0.145289 1.51728 0.391299C0.988881 0.637309 0.650834 1.16714 0.650391 1.75V16.75C0.65047 17.333 0.98838 17.8632 1.51686 18.1094C2.04533 18.3557 2.66862 18.2734 3.11508 17.8984C6.65602 14.9284 10.3338 14.0772 11.9004 13.8391V16.8128C11.8998 17.3148 12.1503 17.7839 12.5679 18.0625L13.5991 18.7497C14.0036 19.0196 14.5138 19.0768 14.968 18.903C15.4221 18.7292 15.7639 18.346 15.8848 17.875L16.9882 13.7163C19.2273 13.4183 20.8999 11.5088 20.9004 9.25ZM2.15039 16.7434V1.75C6.16383 5.11656 10.272 5.96875 11.9004 6.17875V12.3175C10.2738 12.5312 6.16664 13.3816 2.15039 16.7434ZM14.4316 17.4934V17.5037L13.4004 16.8166V13.75H15.4254L14.4316 17.4934ZM16.4004 12.25H13.4004V6.25H16.4004C18.0572 6.25 19.4004 7.59315 19.4004 9.25C19.4004 10.9069 18.0572 12.25 16.4004 12.25Z" fill="#171412"/>
</svg>
