<svg width="21" height="20" viewBox="0 0 21 20" fill="none" xmlns="http://www.w3.org/2000/svg">
<path fill-rule="evenodd" clip-rule="evenodd" d="M11.5254 10C11.5254 10.6213 11.0217 11.125 10.4004 11.125C9.77907 11.125 9.27539 10.6213 9.27539 10C9.27539 9.37868 9.77907 8.875 10.4004 8.875C11.0217 8.875 11.5254 9.37868 11.5254 10ZM6.27539 8.875C5.65407 8.875 5.15039 9.37868 5.15039 10C5.15039 10.6213 5.65407 11.125 6.27539 11.125C6.89671 11.125 7.40039 10.6213 7.40039 10C7.40039 9.37868 6.89671 8.875 6.27539 8.875ZM14.5254 8.875C13.9041 8.875 13.4004 9.37868 13.4004 10C13.4004 10.6213 13.9041 11.125 14.5254 11.125C15.1467 11.125 15.6504 10.6213 15.6504 10C15.6504 9.37868 15.1467 8.875 14.5254 8.875ZM20.1504 10C20.1511 13.424 18.3557 16.5975 15.4204 18.3605C12.4851 20.1234 8.84017 20.2174 5.81789 18.6081L2.6257 19.6722C2.08665 19.852 1.4923 19.7117 1.0905 19.3099C0.688699 18.9081 0.548436 18.3137 0.728203 17.7747L1.79227 14.5825C-0.112869 11.0006 0.399133 6.61332 3.07786 3.56638C5.75658 0.519438 10.0422 -0.550316 13.8386 0.880322C17.635 2.31096 20.1487 5.94298 20.1504 10ZM18.6504 10C18.6494 6.53154 16.4791 3.43408 13.2194 2.24891C9.95971 1.06374 6.30682 2.04399 4.0784 4.70188C1.84998 7.35977 1.52197 11.1276 3.25758 14.1306C3.36509 14.3167 3.38762 14.5399 3.31945 14.7437L2.15039 18.25L5.65664 17.0809C5.73301 17.0549 5.81314 17.0416 5.89383 17.0416C6.02555 17.0418 6.15489 17.0767 6.26883 17.1428C8.8215 18.6197 11.9684 18.6217 14.5229 17.148C17.0775 15.6743 18.6511 12.9491 18.6504 10Z" fill="#8C805E"/>
</svg>
