<svg width="19" height="16" viewBox="0 0 19 16" fill="none" xmlns="http://www.w3.org/2000/svg">
<path fill-rule="evenodd" clip-rule="evenodd" d="M18.4004 7.25V8.75C18.4004 9.16421 18.0646 9.5 17.6504 9.5H1.15039C0.736177 9.5 0.400391 9.16421 0.400391 8.75V7.25C0.400391 6.83579 0.736177 6.5 1.15039 6.5H17.6504C18.0646 6.5 18.4004 6.83579 18.4004 7.25ZM17.6504 12.5H1.15039C0.736177 12.5 0.400391 12.8358 0.400391 13.25V14.75C0.400391 15.1642 0.736177 15.5 1.15039 15.5H17.6504C18.0646 15.5 18.4004 15.1642 18.4004 14.75V13.25C18.4004 12.8358 18.0646 12.5 17.6504 12.5ZM17.6504 0.5H1.15039C0.736177 0.5 0.400391 0.835786 0.400391 1.25V2.75C0.400391 3.16421 0.736177 3.5 1.15039 3.5H17.6504C18.0646 3.5 18.4004 3.16421 18.4004 2.75V1.25C18.4004 0.835786 18.0646 0.5 17.6504 0.5Z" fill="#171412"/>
</svg>
