<svg width="25" height="16" viewBox="0 0 25 16" fill="none" xmlns="http://www.w3.org/2000/svg">
<path fill-rule="evenodd" clip-rule="evenodd" d="M11.3926 10.805C13.4565 9.43099 14.3773 6.86767 13.6596 4.49441C12.9418 2.12114 10.7548 0.497718 8.27539 0.497718C5.79597 0.497718 3.60896 2.12114 2.89123 4.49441C2.17349 6.86767 3.09432 9.43099 5.1582 10.805C3.33991 11.4752 1.78705 12.7153 0.731328 14.3403C0.580322 14.5647 0.561875 14.8531 0.683051 15.095C0.804226 15.3368 1.04625 15.4947 1.31642 15.5081C1.5866 15.5215 1.84306 15.3884 1.98758 15.1597C3.37115 13.0317 5.73716 11.7479 8.27539 11.7479C10.8136 11.7479 13.1796 13.0317 14.5632 15.1597C14.7921 15.4999 15.2518 15.5932 15.5952 15.3692C15.9386 15.1452 16.0385 14.6869 15.8195 14.3403C14.7637 12.7153 13.2109 11.4752 11.3926 10.805ZM4.15039 6.125C4.15039 3.84683 5.99722 2 8.27539 2C10.5536 2 12.4004 3.84683 12.4004 6.125C12.4004 8.40317 10.5536 10.25 8.27539 10.25C5.99829 10.2474 4.15297 8.4021 4.15039 6.125ZM23.851 15.3781C23.5041 15.6043 23.0395 15.5066 22.8132 15.1597C21.4312 13.0303 19.064 11.7466 16.5254 11.75C16.1112 11.75 15.7754 11.4142 15.7754 11C15.7754 10.5858 16.1112 10.25 16.5254 10.25C18.1867 10.2484 19.6849 9.25041 20.3265 7.71798C20.9681 6.18554 20.6277 4.4178 19.463 3.23312C18.2983 2.04844 16.5366 1.67805 14.9935 2.29344C14.743 2.40171 14.4535 2.36541 14.2375 2.19864C14.0216 2.03188 13.9132 1.76096 13.9546 1.49125C13.996 1.22154 14.1806 0.995581 14.4366 0.90125C17.1113 -0.165433 20.1596 0.960007 21.4994 3.50883C22.8392 6.05765 22.0378 9.2067 19.6426 10.805C21.4609 11.4752 23.0137 12.7153 24.0695 14.3403C24.2957 14.6872 24.1979 15.1518 23.851 15.3781Z" fill="#171412"/>
</svg>
