<svg width="20" height="19" viewBox="0 0 20 19" fill="none" xmlns="http://www.w3.org/2000/svg">
<path fill-rule="evenodd" clip-rule="evenodd" d="M18.2476 12.8556L13.831 10.8766L13.8188 10.8709C13.353 10.6717 12.8181 10.7211 12.3966 11.0022C12.3722 11.0183 12.3487 11.0359 12.3263 11.0547L10.0445 13C8.59883 12.2978 7.10633 10.8166 6.40414 9.38969L8.35227 7.07312C8.37102 7.04969 8.38883 7.02625 8.4057 7.00094C8.68071 6.5807 8.72716 6.05073 8.52945 5.58906V5.57781L6.54477 1.15375C6.28048 0.543904 5.64639 0.180692 4.98664 0.26125C2.35872 0.607054 0.395639 2.84943 0.400391 5.5C0.400391 12.9438 6.45664 19 13.9004 19C16.551 19.0048 18.7933 17.0417 19.1391 14.4137C19.2198 13.7542 18.8571 13.1202 18.2476 12.8556ZM13.9004 17.5C7.27597 17.4928 1.90762 12.1244 1.90039 5.5C1.89309 3.60618 3.29234 2.00108 5.16945 1.75C5.16908 1.75374 5.16908 1.75751 5.16945 1.76125L7.1382 6.1675L5.20039 8.48687C5.18072 8.50951 5.16286 8.53364 5.14695 8.55906C4.86 8.99938 4.82444 9.55777 5.0532 10.0309C5.90258 11.7681 7.65289 13.5053 9.40883 14.3538C9.88554 14.5804 10.4463 14.5398 10.8854 14.2469C10.9095 14.2307 10.9326 14.2131 10.9548 14.1944L13.2338 12.25L17.6401 14.2234C17.6401 14.2234 17.6476 14.2234 17.6504 14.2234C17.4024 16.1033 15.7966 17.5064 13.9004 17.5Z" fill="#171712"/>
</svg>
