<svg width="19" height="18" viewBox="0 0 19 18" fill="none" xmlns="http://www.w3.org/2000/svg">
<path fill-rule="evenodd" clip-rule="evenodd" d="M18.4004 9C18.4004 9.41421 18.0646 9.75 17.6504 9.75H10.1504V17.25C10.1504 17.6642 9.8146 18 9.40039 18C8.98618 18 8.65039 17.6642 8.65039 17.25V9.75H1.15039C0.736177 9.75 0.400391 9.41421 0.400391 9C0.400391 8.58579 0.736177 8.25 1.15039 8.25H8.65039V0.75C8.65039 0.335786 8.98618 0 9.40039 0C9.8146 0 10.1504 0.335786 10.1504 0.75V8.25H17.6504C18.0646 8.25 18.4004 8.58579 18.4004 9Z" fill="#171712"/>
</svg>
