<svg width="21" height="21" viewBox="0 0 21 21" fill="none" xmlns="http://www.w3.org/2000/svg">
<path fill-rule="evenodd" clip-rule="evenodd" d="M17.1504 4.5H11.1504V1.5C11.1504 1.08579 10.8146 0.75 10.4004 0.75C9.98618 0.75 9.65039 1.08579 9.65039 1.5V4.5H3.65039C1.99354 4.5 0.650391 5.84315 0.650391 7.5V18C0.650391 19.6569 1.99354 21 3.65039 21H17.1504C18.8072 21 20.1504 19.6569 20.1504 18V7.5C20.1504 5.84315 18.8072 4.5 17.1504 4.5ZM18.6504 18C18.6504 18.8284 17.9788 19.5 17.1504 19.5H3.65039C2.82196 19.5 2.15039 18.8284 2.15039 18V7.5C2.15039 6.67157 2.82196 6 3.65039 6H17.1504C17.9788 6 18.6504 6.67157 18.6504 7.5V18ZM13.7754 12.75H7.02539C5.57564 12.75 4.40039 13.9253 4.40039 15.375C4.40039 16.8247 5.57564 18 7.02539 18H13.7754C15.2251 18 16.4004 16.8247 16.4004 15.375C16.4004 13.9253 15.2251 12.75 13.7754 12.75ZM11.1504 14.25V16.5H9.65039V14.25H11.1504ZM5.90039 15.375C5.90039 14.7537 6.40407 14.25 7.02539 14.25H8.15039V16.5H7.02539C6.40407 16.5 5.90039 15.9963 5.90039 15.375ZM13.7754 16.5H12.6504V14.25H13.7754C14.3967 14.25 14.9004 14.7537 14.9004 15.375C14.9004 15.9963 14.3967 16.5 13.7754 16.5ZM5.15039 10.125C5.15039 9.50368 5.65407 9 6.27539 9C6.89671 9 7.40039 9.50368 7.40039 10.125C7.40039 10.7463 6.89671 11.25 6.27539 11.25C5.65407 11.25 5.15039 10.7463 5.15039 10.125ZM13.4004 10.125C13.4004 9.50368 13.9041 9 14.5254 9C15.1467 9 15.6504 9.50368 15.6504 10.125C15.6504 10.7463 15.1467 11.25 14.5254 11.25C13.9041 11.25 13.4004 10.7463 13.4004 10.125Z" fill="#171412"/>
</svg>
