<svg width="19" height="20" viewBox="0 0 19 20" fill="none" xmlns="http://www.w3.org/2000/svg">
<path fill-rule="evenodd" clip-rule="evenodd" d="M16.9004 0.75H1.90039C1.07196 0.75 0.400391 1.42157 0.400391 2.25V7.76062C0.400391 16.1616 7.50852 18.9487 8.93164 19.4222C9.23559 19.5256 9.56519 19.5256 9.86914 19.4222C11.2941 18.9487 18.4004 16.1616 18.4004 7.76062V2.25C18.4004 1.42157 17.7288 0.75 16.9004 0.75ZM16.9004 7.76156C16.9004 15.1134 10.6801 17.5697 9.40039 17.9972C8.13195 17.5744 1.90039 15.12 1.90039 7.76156V2.25H16.9004V7.76156ZM5.11977 10.2806C4.82671 9.98757 4.82671 9.51243 5.11977 9.21937C5.41282 8.92632 5.88796 8.92632 6.18102 9.21937L7.90039 10.9388L12.6198 6.21937C12.9128 5.92632 13.388 5.92632 13.681 6.21937C13.9741 6.51243 13.9741 6.98757 13.681 7.28063L8.43102 12.5306C8.29034 12.6715 8.09945 12.7506 7.90039 12.7506C7.70133 12.7506 7.51044 12.6715 7.36977 12.5306L5.11977 10.2806Z" fill="#171412"/>
</svg>
