<svg width="17" height="14" viewBox="0 0 17 14" fill="none" xmlns="http://www.w3.org/2000/svg">
<path fill-rule="evenodd" clip-rule="evenodd" d="M11.2473 5.22969L7.49727 2.72969C7.30543 2.6017 7.05871 2.58975 6.8554 2.69859C6.65209 2.80743 6.52524 3.01939 6.52539 3.25V8.25C6.52524 8.48061 6.65209 8.69256 6.8554 8.80141C7.05871 8.91025 7.30543 8.8983 7.49727 8.77031L11.2473 6.27031C11.4214 6.15444 11.526 5.95915 11.526 5.75C11.526 5.54085 11.4214 5.34556 11.2473 5.22969ZM7.77539 7.08203V4.42188L9.77383 5.75L7.77539 7.08203ZM15.2754 0.125H1.52539C0.835035 0.125 0.275391 0.684644 0.275391 1.375V10.125C0.275391 10.8154 0.835035 11.375 1.52539 11.375H15.2754C15.9657 11.375 16.5254 10.8154 16.5254 10.125V1.375C16.5254 0.684644 15.9657 0.125 15.2754 0.125ZM15.2754 10.125H1.52539V1.375H15.2754V10.125ZM16.5254 13.25C16.5254 13.5952 16.2456 13.875 15.9004 13.875H0.900391C0.555213 13.875 0.275391 13.5952 0.275391 13.25C0.275391 12.9048 0.555213 12.625 0.900391 12.625H15.9004C16.2456 12.625 16.5254 12.9048 16.5254 13.25Z" fill="#171712"/>
</svg>
